<svg width="16" height="17" viewBox="0 0 16 17" xmlns="http://www.w3.org/2000/svg" xmlns:xlink="http://www.w3.org/1999/xlink">
	<use xlink:href="#a" transform="translate(0 .25)" fill="#FFF"/>
	<defs>
		<path id="a" d="M4.64 0h6.72C13.92 0 16 2.08 16 4.64v6.72A4.64 4.64 0 0 1 11.36 16H4.64C2.08 16 0 13.92 0 11.36V4.64A4.64 4.64 0 0 1 4.64 0zm-.16 1.6A2.88 2.88 0 0 0 1.6 4.48v7.04a2.878 2.878 0 0 0 2.88 2.88h7.04a2.88 2.88 0 0 0 2.88-2.88V4.48a2.878 2.878 0 0 0-2.88-2.88H4.48zm7.72 1.2a1 1 0 1 1 0 2 1 1 0 0 1 0-2zM8 4a4 4 0 1 1 0 8 4 4 0 0 1 0-8zm0 1.6a2.4 2.4 0 1 0 0 4.8 2.4 2.4 0 0 0 0-4.8z"/>
	</defs>
</svg>
